<svg width="427px" height="512px" viewBox="0 0 427 512" version="1.1" xmlns="http://www.w3.org/2000/svg" xmlns:xlink="http://www.w3.org/1999/xlink">
    <g id="Page-1" stroke="none" stroke-width="1" fill="none" fill-rule="evenodd">
        <g id="stack-overflow" fill="#FFFFFF" fill-rule="nonzero">
            <g id="Group" transform="translate(89.333333, 167.333333)">
                <polygon id="Path" points="5.472 149.232 226.016 196.08 235.253333 151.514667 14.7093333 104.325333"></polygon>
                <polygon id="Path" points="0.586666667 207.514667 225.994667 207.514667 225.994667 252.890667 0.586666667 252.890667"></polygon>
                <polygon id="Path" points="34.4 42.3946667 238.602667 138.949333 257.525333 97.4773333 53.216 0.666666667"></polygon>
                <polygon id="Path" points="238.624 138.970667 238.602667 138.949333 238.581333 138.970667"></polygon>
            </g>
            <polygon id="Path" points="0 329.152 0 512 405.162667 512 405.162667 329.152 360.085333 329.152 360.085333 466.282667 45.0773333 466.282667 45.0773333 329.152"></polygon>
            <polygon id="Path" points="180.330667 108.010667 353.322667 254.634667 382.037333 219.434667 209.045333 72.8106667"></polygon>
            <polygon id="Path" points="426.666667 183.189333 292.224 0 256.149333 27.4346667 390.592 210.624"></polygon>
        </g>
    </g>
</svg>